<svg xmlns="http://www.w3.org/2000/svg" xmlns:xlink="http://www.w3.org/1999/xlink" width="338px" height="48px" viewBox="0 0 338 48" version="1.1">
    <!-- Generator: Sketch 49.1 (51147) - http://www.bohemiancoding.com/sketch -->
    <title>elements/logo_32px_obsidian</title>
    <desc>Created with Sketch.</desc>
    <defs>
        <path d="M320.489915,3.51225669 L322.947334,3.51225669 L322.947334,15.0171145 L319.77702,15.0171145 L319.751472,14.9660196 L315.533714,6.72758281 L315.533714,15.0171145 L313.077511,15.0171145 L313.077511,3.51225669 L316.246609,3.51225669 L316.272156,3.56335154 L320.489915,11.8030049 L320.489915,3.51225669 Z M325.8494,3.51225669 L334.544041,3.51225669 L334.544041,5.41371516 L334.523359,5.44047913 L328.462537,12.9015442 L334.71314,12.9015442 L334.71314,15.0171145 L325.355483,15.0171145 L325.355483,13.1168725 L325.377381,13.0901086 L331.454019,5.62904347 L325.8494,5.62904347 L325.8494,3.51225669 Z M100.737034,13.6896215 C104.459659,13.6896215 106.745545,15.2516642 108.009535,16.5630987 C109.814886,18.4888881 110.689581,21.5095671 110.689581,25.8027514 L110.689581,43.9888695 L104.509537,43.9888695 L104.509537,27.2042102 C104.509537,23.7528745 104.056983,21.739494 103.042385,20.6738013 C102.120245,19.700566 100.77353,19.2285469 98.9268163,19.2285469 C94.8221964,19.2285469 92.4681835,22.4122429 92.4681835,27.9633337 L92.4681835,43.9888695 L86.2881394,43.9888695 L86.2881394,27.2042102 C86.2881394,23.7528745 85.835585,21.739494 84.8209872,20.6738013 C83.8988467,19.700566 82.5533489,19.2285469 80.7066349,19.2285469 C76.6020151,19.2285469 74.2492187,22.4122429 74.2492187,27.9633337 L74.2492187,43.9888695 L68.0679581,43.9888695 L68.0679581,14.1567745 L74.2492187,14.1567745 L74.2492187,16.8781837 C76.1543268,14.7601803 78.9268309,13.6896215 82.5168526,13.6896215 C86.4535894,13.6896215 89.1056556,15.0935134 90.7832699,18.0910782 C93.0922707,15.1324428 96.3586916,13.6896215 100.737034,13.6896215 Z M55.5693054,11.1680905 L55.5693054,3.99534636 L61.7505661,3.99534636 L61.7505661,11.1680905 L55.5693054,11.1680905 Z M50.2599419,13.9818354 C50.7502091,13.9842685 51.2465592,13.9818354 51.8061694,14.0438792 L52.3475316,14.1034898 L52.3475316,20.5840204 L51.6723496,20.5085946 C50.6163893,20.3918064 49.766025,20.3370619 48.994736,20.3370619 C44.6322088,20.3370619 42.7708962,22.8273277 42.7708962,28.6643064 L42.7708962,43.9891128 L36.5896356,43.9891128 L36.5896356,14.1570178 L42.6528915,14.1570178 L42.6528915,17.6399836 C44.3901165,15.3869439 47.0616474,14.081592 50.2599419,13.9818354 Z M16.0552223,3.9949814 C23.9518102,3.9949814 33.015064,5.45240126 33.015064,16.8100572 C33.015064,28.1664966 23.9518102,29.6226999 16.0552223,29.6226999 L10.7644719,29.6226999 L10.7644719,43.9888695 L4.00048662,43.9888695 L4.00048662,3.9949814 L16.0552223,3.9949814 Z M55.5693054,43.9892344 L55.5693054,14.1571394 L61.7505661,14.1571394 L61.7505661,43.9892344 L55.5693054,43.9892344 Z M255.212469,13.6898648 C259.331687,13.6898648 262.846283,15.1326862 265.376695,17.8613946 C268.265987,20.9781807 269.640682,25.5365715 269.250171,30.6959351 L269.207592,31.2579785 L247.191793,31.2579785 C247.436318,35.9708704 250.526341,39.0937392 255.03607,39.0937392 C258.947259,39.0937392 261.258693,37.6630833 262.529981,34.4550565 L262.703947,34.015884 L268.953334,34.8078543 L268.76112,35.4879024 C267.174747,41.0779227 261.832902,44.6898422 255.152858,44.6898422 C246.240456,44.6898422 240.703963,38.7506738 240.703963,29.1898535 C240.703963,20.0633395 246.669896,13.6898648 255.212469,13.6898648 Z M131.556963,38.8253696 L125.954777,44.4263387 C118.883006,43.1830306 114.614153,37.583278 114.614153,29.1903401 C114.614153,20.0638261 120.580085,13.6891349 129.121441,13.6891349 C133.241876,13.6891349 136.756472,15.1319562 139.286884,17.8618812 C141.510727,20.2596897 142.827028,23.5175949 143.140896,27.2402199 L139.123867,31.2584651 L121.101983,31.2584651 C121.346508,35.9701405 124.43653,39.0930093 128.946259,39.0930093 C129.910979,39.0930093 130.777158,39.0042016 131.556963,38.8253696 Z M273.351385,43.9892344 L273.351385,3.99534636 L279.532645,3.99534636 L279.532645,43.9892344 L273.351385,43.9892344 Z M298.199663,25.8491017 C303.581655,26.961023 309.080434,28.9342576 309.080434,35.1471484 C309.080434,40.8551734 304.050024,44.6897205 296.559762,44.6897205 C288.428381,44.6897205 284.129114,39.5984834 283.57437,34.8673433 L283.501377,34.2456892 L289.855387,33.67513 L289.969742,34.198244 C290.730082,37.6495797 292.924728,39.327194 296.67655,39.327194 C300.306718,39.327194 302.841996,37.824762 302.841996,35.6726955 C302.841996,33.784619 300.956352,32.4707513 297.076793,31.6532337 L293.343219,30.8953267 C291.116943,30.4573708 284.329844,29.1191723 284.329844,22.2408318 C284.329844,16.6264807 290.481907,13.6897432 296.559762,13.6897432 C303.047592,13.6897432 307.657077,16.9452152 308.890653,22.397766 L309.043938,23.0753811 L302.683845,23.6532395 L302.56584,23.1349917 C301.93932,20.3880351 299.801852,19.0534862 296.034215,19.0534862 C293.373633,19.0534862 290.511105,19.958595 290.511105,21.9476447 C290.511105,23.6264756 291.661955,24.4938715 294.75806,25.1495888 L298.199663,25.8491017 Z M226.536455,13.6896215 C230.445212,13.6896215 233.40993,15.1421752 235.111875,17.8903484 C236.266375,19.7735587 236.780973,22.2139462 236.780973,25.8027514 L236.780973,43.9888695 L230.599713,43.9888695 L230.599713,27.1458161 C230.599713,24.3295164 230.300443,22.5497124 229.628911,21.3745307 C228.740833,19.8939965 227.262732,19.2285469 224.841809,19.2285469 C220.263954,19.2285469 217.742058,22.3927782 217.742058,28.1385161 L217.742058,43.9888695 L211.560797,43.9888695 L211.560797,14.1567745 L217.742058,14.1567745 L217.742058,16.9779403 C219.799234,14.7942436 222.748137,13.6896215 226.536455,13.6896215 Z M165.541731,4.18780364 C172.096471,4.83987129 178.202306,7.48707131 178.202306,16.8094489 C178.202306,28.1658883 169.139052,29.6233082 161.242464,29.6233082 L155.951714,29.6233082 L155.951714,43.9894777 L149.187728,43.9894777 L149.187728,20.5430228 L155.951714,13.777821 L155.951714,23.5004416 L161.651223,23.5004416 C167.775306,23.5004416 171.321532,22.4067684 171.321532,16.8094489 C171.321532,11.2121294 167.775306,10.1184562 161.651223,10.1184562 L159.612295,10.1184562 L165.541731,4.18780364 Z M205.535254,32.3532332 C205.481726,36.5028652 205.729901,39.1695299 206.04377,42.5454398 L206.177589,43.9894777 L200.141098,43.9894777 L200.015794,41.1208667 C197.93672,43.5478722 194.997549,44.6902071 190.911177,44.6902071 C183.551085,44.6902071 180.199506,39.5612571 180.199506,34.7960538 C180.199506,31.7449611 181.639895,29.3203887 184.364953,27.7838935 C187.274927,26.1744056 190.937941,25.5904644 194.464703,25.1975207 L199.471998,24.670757 L199.471998,24.1671078 C199.471998,20.4590813 197.680029,18.8775739 193.480518,18.8775739 C189.65692,18.8775739 187.482956,20.5247747 187.195852,23.6391276 L187.142324,24.2121199 L181.098532,23.993142 L181.136245,23.3714879 C181.481744,17.5454581 186.536485,13.6318357 193.714095,13.6318357 C198.155698,13.6318357 201.119199,14.5418107 203.044988,16.4967971 C204.860072,18.3374283 205.711653,21.1561611 205.652042,25.111146 L205.535254,32.3532332 Z M16.4639812,23.5010499 C22.5880643,23.5010499 26.1342904,22.4061602 26.1342904,16.8100572 C26.1342904,11.2127377 22.5880643,10.117848 16.4639812,10.117848 L10.7644719,10.117848 L10.7644719,23.5010499 L16.4639812,23.5010499 Z M247.28425,25.895452 L262.735577,25.895452 C262.362098,22.4283013 259.758694,19.1107854 255.212469,19.1107854 C250.725854,19.1107854 247.739238,21.6922921 247.28425,25.895452 Z M129.121441,19.1112721 C124.636043,19.1112721 121.649427,21.6927787 121.19444,25.8959386 L136.646983,25.8959386 C136.272288,22.4287879 133.668883,19.1112721 129.121441,19.1112721 Z M199.822363,31.0004361 L199.822363,29.9773225 L194.532829,30.4955703 C188.948892,31.0199008 186.671521,32.3167369 186.671521,34.9712361 C186.671521,37.5503097 188.654488,39.1524983 191.845483,39.1524983 C193.716528,39.1524983 199.822363,38.5636909 199.822363,31.0004361 Z" id="path-1"/>
    </defs>
    <g id="elements/logo_32px_obsidian" stroke="none" stroke-width="1" fill="none" fill-rule="evenodd">
        <mask id="mask-2" fill="white">
            <use xlink:href="#path-1"/>
        </mask>
        <use id="Mask" fill="#171F32" xlink:href="#path-1"/>
    </g>
</svg>