<svg width="178" height="33" xmlns="http://www.w3.org/2000/svg" viewBox="0 0 178.3 33.3">
  <linearGradient id="LogoGradient" gradientUnits="userSpaceOnUse" x1="79.52" y1="26.71" x2="80.564" y2="26.71" gradientTransform="matrix(178.2926 0 0 -33.3437 -14183.408 907.28)">
    <stop offset="0" stop-color="#EA1C24"></stop>
    <stop offset=".134" stop-color="#E31D27"></stop>
    <stop offset="1" stop-color="#66315D"></stop>
  </linearGradient>
  <path fill="url(#LogoGradient)" d="M175.2 13.1h-.6v-.8h.6c.2 0 .4.1.4.4 0 .3-.2.4-.4.4zm1-.4c0-.5-.4-.9-1-.9h-1.3v2.9h.6v-1h.4l.6 1h.7l-.7-1.1c.4-.1.7-.4.7-.9zm-1.1 2.9c-1.3 0-2.4-1.1-2.4-2.4s1.1-2.4 2.4-2.4 2.4 1.1 2.4 2.4-1.1 2.4-2.4 2.4zm0-5.6c-1.8 0-3.2 1.4-3.2 3.2 0 1.8 1.4 3.2 3.2 3.2 1.8 0 3.2-1.4 3.2-3.2 0-1.7-1.4-3.2-3.2-3.2zm-35.9 3.9l-.1-3.6h-6.9v22.5h6.9v-9.4c0-4.5.6-7.5 5.9-7.5 1 0 2 .2 3 .5V10c-.6-.2-1.5-.2-2.3-.2-3.1 0-5 1.4-6.5 4.1zm-16.4 10.5c0 2.8-2.5 4.2-5.3 4.2-1.5 0-3.3-.8-3.3-2.5 0-3.1 4.7-3.2 6.8-3.2h1.7v1.5zm-3.9-14.6c-3.7 0-7.4 1.2-9.9 3.6l3.7 3.8c1.5-1.7 3.4-2.7 5.6-2.7 2.4 0 4.4 1.6 4.4 4-5.8 0-15.2.1-15.2 7.9 0 4.5 3.8 6.9 8 6.9 2.8 0 5.6-1 7.1-3.4h.1v2.8h6.4V21.4c.1-7.5-2.1-11.6-10.2-11.6zm-19.7 6.1c1.4 0 2.7.7 3.4 1.7l4.6-4.8c-2.2-2.2-5.4-3-8-3-6.9 0-12.5 4.6-12.5 11.8 0 7.2 5.6 11.8 12.5 11.8 2.6 0 5.8-.8 8-3l-4.6-4.8c-.8.9-1.9 1.7-3.4 1.7-3.5 0-5.6-2.3-5.6-5.7 0-3.4 2.1-5.7 5.6-5.7zm-59.7 7.6c0 3.6-1.5 7.4-7.4 7.4-2.3 0-4.9-1.3-4.9-4 0-3.7 4.6-4.8 9.3-4.8h3.1v1.4zm2.5-4.9c0-5.4-3.3-7.7-8.5-7.7-2.8 0-6.1 1.1-8.1 3l1.6 1.9c1.9-1.6 4-2.4 6.5-2.4 3.4 0 6 1.5 6 5.2v1.3h-3.2c-4.2 0-11.8.6-11.8 7.2 0 4.5 3.9 6.3 7.5 6.3s5.9-1.3 7.5-4h.1c0 1.2.1 2.4.3 3.5h2.6c-.3-2.5-.4-4.8-.4-9v-5.3zM11.4 30.8c-5 0-8.9-3.9-8.9-8.7s3.9-8.7 8.9-8.7c5.2 0 8.5 3.9 8.5 8.7s-3.2 8.7-8.5 8.7zm0-19.9c-3.2 0-6.8 1.3-8.6 4.3V0H0v32.8h2.8V29h.1c1.7 3 5.4 4.3 8.6 4.3 6.6 0 11.2-4.7 11.2-11.2 0-6.5-4.7-11.2-11.3-11.2zm64.8 0c-3.5 0-6.2 1.9-7.3 4.3h-.1V0H66v32.8h2.8V22.1c0-5.9 3.3-8.7 7.4-8.7 4.4 0 5.4 3.4 5.4 6.8v12.6h2.8V20.1c0-4.7-1.5-9.2-8.2-9.2zm-19.8 2.5c2.2 0 4.1 1.1 5.7 2.9l2.2-1.7c-2.1-2.4-4.9-3.7-8-3.7-6.6 0-11.2 4.7-11.2 11.2 0 6.5 4.7 11.2 11.2 11.2 3.1 0 5.8-1.2 7.9-3.7l-2.1-1.8c-1.4 1.8-3.4 3-5.7 3-5.2 0-8.5-3.9-8.5-8.7 0-4.8 3.2-8.7 8.5-8.7zm99.4 5.6c.2-2.2 1.8-4.3 4.9-4.3 2.5 0 4.3 1.9 4.3 4.3h-9.2zm5.5-9.2c-6.9 0-12.5 4.6-12.5 11.8 0 7.2 5.5 11.8 12.5 11.8 3.6 0 7.3-1.6 9.5-4.4l-4.9-3.6c-1.2 1.6-2.7 2.7-5 2.7-2.7 0-4.7-1.7-5.2-4.3h16.1v-2.2c.1-7.2-4-11.8-10.5-11.8z"></path>
</svg>
